<?xml version="1.0" encoding="utf-8"?>
<svg width="176" height="32" viewBox="0 0 176 32" fill="none" xmlns="http://www.w3.org/2000/svg">
  <path d="M -0.051 8.421 C -0.083 3.77 3.662 0 8.313 0 L 23.471 0 C 28.122 0 31.917 3.77 31.949 8.421 L 32.051 23.579 C 32.083 28.23 28.338 32 23.687 32 L 8.529 32 C 3.878 32 0.083 28.23 0.051 23.579 L -0.051 8.421 Z" fill="#3C50E0" style=""/>
  <g filter="url(#filter0_d_506_10589)" style="" transform="matrix(1, 0, 0.006755, 1, -0.108084, 0)">
    <path d="M8.42139 8.42127C8.42139 7.49111 9.17543 6.73706 10.1056 6.73706V6.73706C11.0358 6.73706 11.7898 7.49111 11.7898 8.42127V23.5792C11.7898 24.5093 11.0358 25.2634 10.1056 25.2634V25.2634C9.17543 25.2634 8.42139 24.5093 8.42139 23.5792V8.42127Z" fill="white"/>
  </g>
  <g opacity="0.9" filter="url(#filter1_d_506_10589)" style="" transform="matrix(1, 0, 0.006755, 1, -0.108084, 0)">
    <path d="M14.7368 15.1576C14.7368 14.2274 15.4909 13.4734 16.421 13.4734V13.4734C17.3512 13.4734 18.1052 14.2274 18.1052 15.1576V23.5786C18.1052 24.5088 17.3512 25.2629 16.421 25.2629V25.2629C15.4909 25.2629 14.7368 24.5088 14.7368 23.5786V15.1576Z" fill="white"/>
  </g>
  <g opacity="0.7" filter="url(#filter2_d_506_10589)" style="" transform="matrix(1, 0, 0.006755, 1, -0.108084, 0)">
    <path d="M21.0522 10.9469C21.0522 10.0167 21.8063 9.2627 22.7365 9.2627V9.2627C23.6666 9.2627 24.4207 10.0167 24.4207 10.9469V23.5785C24.4207 24.5086 23.6666 25.2627 22.7365 25.2627V25.2627C21.8063 25.2627 21.0522 24.5086 21.0522 23.5785V10.9469Z" fill="white"/>
  </g>
  <defs>
    <filter id="filter0_d_506_10589" x="7.42139" y="6.23706" width="5.36865" height="20.5264" filterUnits="userSpaceOnUse" color-interpolation-filters="sRGB">
      <feFlood flood-opacity="0" result="BackgroundImageFix"/>
      <feColorMatrix in="SourceAlpha" type="matrix" values="0 0 0 0 0 0 0 0 0 0 0 0 0 0 0 0 0 0 127 0" result="hardAlpha"/>
      <feOffset dy="0.5"/>
      <feGaussianBlur stdDeviation="0.5"/>
      <feComposite in2="hardAlpha" operator="out"/>
      <feColorMatrix type="matrix" values="0 0 0 0 0 0 0 0 0 0 0 0 0 0 0 0 0 0 0.12 0"/>
      <feBlend mode="normal" in2="BackgroundImageFix" result="effect1_dropShadow_506_10589"/>
      <feBlend mode="normal" in="SourceGraphic" in2="effect1_dropShadow_506_10589" result="shape"/>
    </filter>
    <filter id="filter1_d_506_10589" x="13.7368" y="12.9734" width="5.36865" height="13.7896" filterUnits="userSpaceOnUse" color-interpolation-filters="sRGB">
      <feFlood flood-opacity="0" result="BackgroundImageFix"/>
      <feColorMatrix in="SourceAlpha" type="matrix" values="0 0 0 0 0 0 0 0 0 0 0 0 0 0 0 0 0 0 127 0" result="hardAlpha"/>
      <feOffset dy="0.5"/>
      <feGaussianBlur stdDeviation="0.5"/>
      <feComposite in2="hardAlpha" operator="out"/>
      <feColorMatrix type="matrix" values="0 0 0 0 0 0 0 0 0 0 0 0 0 0 0 0 0 0 0.12 0"/>
      <feBlend mode="normal" in2="BackgroundImageFix" result="effect1_dropShadow_506_10589"/>
      <feBlend mode="normal" in="SourceGraphic" in2="effect1_dropShadow_506_10589" result="shape"/>
    </filter>
    <filter id="filter2_d_506_10589" x="20.0522" y="8.7627" width="5.36865" height="18" filterUnits="userSpaceOnUse" color-interpolation-filters="sRGB">
      <feFlood flood-opacity="0" result="BackgroundImageFix"/>
      <feColorMatrix in="SourceAlpha" type="matrix" values="0 0 0 0 0 0 0 0 0 0 0 0 0 0 0 0 0 0 127 0" result="hardAlpha"/>
      <feOffset dy="0.5"/>
      <feGaussianBlur stdDeviation="0.5"/>
      <feComposite in2="hardAlpha" operator="out"/>
      <feColorMatrix type="matrix" values="0 0 0 0 0 0 0 0 0 0 0 0 0 0 0 0 0 0 0.12 0"/>
      <feBlend mode="normal" in2="BackgroundImageFix" result="effect1_dropShadow_506_10589"/>
      <feBlend mode="normal" in="SourceGraphic" in2="effect1_dropShadow_506_10589" result="shape"/>
    </filter>
  </defs>
  <text style="fill: rgb(255, 255, 255); font-family: Arial, sans-serif; font-weight: 700; white-space: pre; opacity: 0.7;" transform="matrix(1.576427, 0, 0.006882, 1.018751, -15.314925, -13.296107)"><tspan x="35.289" y="25.627">Attendance</tspan><tspan x="35.289" dy="1em">​</tspan><tspan>System</tspan></text>
</svg>